# xmcd CD database file
#
# Track frame offsets:
#	150
#	10063
#	23622
#	36668
#	51300
#	63668
#	74674
#	87112
#	99888
#	112712
#	123995
#	135502
#	148049
#	157865
#	170173
#	181282
#	193575
#	205925
#	218336
#	230120
#	243934
#	257652
#	269773
#	280852
#	294616
#	306911
#	317343
#
# Disc length: 4433 seconds
#
# Revision: 0
# Processed by: cddbd v1.5.2PL0 Copyright (c) Steve Scherf et al.
# Submitted via: Feurio! 1.68 - http://www.feurio.com
#
DISCID=89114f1b
DTITLE=Various Artist - Memphis and The South 1949-1954 - CD2 
DYEAR=1900
DGENRE=Blues
TTITLE0=Papa Lightfoot - Wine, Whisky and Women
TTITLE1=Jerry McCain - Love To Make Up
TTITLE2=Joe Hill Lewis - Joe's Jump
TTITLE3=Lightnin' Slim - Ethel Mae
TTITLE4=Big Joe Williams - His Spirit Lives On
TTITLE5=Louis Campbell - Don't Want Anyone Hangin' Around
TTITLE6=Lightning Slim - Rock Me Mamma
TTITLE7=Schoolboy Cleve - Strange Letter Blues
TTITLE8=Willie Love - Nelson St. Blues
TTITLE9=Boogie Bill Webb - I Ain't For It
TTITLE10=Papa Lightfoot - P.L. Blues
TTITLE11=Lightnin' Slim - New Orleans Bound
TTITLE12=Little Sam Davis - She's So Good To Me
TTITLE13=Luther Huff - Dirty Disposition
TTITLE14=Country Jim - Old River Blues
TTITLE15=Jerry McCain - East Of The Sun
TTITLE16=John Lee - Alabama Boogie
TTITLE17=Percy Lee Crudup - Tears In My Eyes
TTITLE18=Dr Ross - Dr Ross Boogie
TTITLE19=Willie Nix - Just One Mistake
TTITLE20=Lightnin' Slim - Can't Live Happy
TTITLE21=Big Joe Williams - Married Woman Blues
TTITLE22=Country Jim - Sad And Lonely
TTITLE23=John Lee - Down At The Depot
TTITLE24=Joe Hill Louis - Railroad Blues
TTITLE25=Boogie Bill Webb - Bad Dog
TTITLE26=John Lee - Baby's Blues
EXTD=
EXTT0=
EXTT1=
EXTT2=
EXTT3=
EXTT4=
EXTT5=
EXTT6=
EXTT7=
EXTT8=
EXTT9=
EXTT10=
EXTT11=
EXTT12=
EXTT13=
EXTT14=
EXTT15=
EXTT16=
EXTT17=
EXTT18=
EXTT19=
EXTT20=
EXTT21=
EXTT22=
EXTT23=
EXTT24=
EXTT25=
EXTT26=
PLAYORDER=
